<?xml version="1.0" standalone="no"?>
<!DOCTYPE svg PUBLIC "-//W3C//DTD SVG 20010904//EN"
 "http://www.w3.org/TR/2001/REC-SVG-20010904/DTD/svg10.dtd">
<svg version="1.0" xmlns="http://www.w3.org/2000/svg"
 width="800.000000pt" height="800.000000pt" viewBox="0 0 800.000000 800.000000"
 preserveAspectRatio="xMidYMid meet">
<metadata>
Created by potrace 1.13, written by Peter Selinger 2001-2015
</metadata>
<g transform="translate(0.000000,800.000000) scale(0.100000,-0.100000)"
fill="#000000" stroke="none">
<path d="M3873 7672 c-149 -53 -245 -178 -262 -339 -4 -43 -7 -1371 -7 -2950
1 -1580 -2 -2873 -6 -2873 -5 0 -56 37 -115 83 -60 46 -196 150 -303 232 -107
82 -224 172 -260 200 -36 28 -177 136 -314 240 -445 340 -877 671 -1021 783
-261 203 -398 302 -442 319 -35 13 -75 18 -148 18 -88 0 -107 -3 -158 -27 -74
-35 -160 -121 -195 -195 -24 -52 -27 -70 -27 -163 0 -174 34 -226 267 -406
178 -137 630 -484 821 -629 73 -56 260 -199 417 -320 407 -312 597 -458 745
-571 72 -54 214 -163 315 -241 688 -530 667 -517 810 -517 133 0 199 32 422
204 146 112 663 508 868 665 80 61 206 158 280 215 74 57 196 150 270 207 74
57 232 178 350 268 118 91 312 239 430 330 118 90 314 240 434 332 233 179
266 213 306 321 31 81 26 204 -12 285 -75 160 -253 258 -418 229 -107 -19
-126 -32 -614 -407 -461 -355 -666 -512 -991 -760 -44 -34 -170 -130 -280
-215 -110 -84 -236 -181 -280 -215 -44 -34 -139 -107 -212 -163 -73 -56 -136
-102 -140 -102 -4 0 -8 1293 -7 2873 0 1579 -3 2907 -7 2950 -11 102 -44 173
-113 243 -79 78 -147 107 -261 111 -69 3 -102 -1 -142 -15z"/>
</g>
</svg>
