<?xml version="1.0" standalone="no"?>
<!DOCTYPE svg PUBLIC "-//W3C//DTD SVG 20010904//EN"
 "http://www.w3.org/TR/2001/REC-SVG-20010904/DTD/svg10.dtd">
<svg version="1.0" xmlns="http://www.w3.org/2000/svg"
 width="284.000000pt" height="626.000000pt" viewBox="0 0 284.000000 626.000000"
 preserveAspectRatio="xMidYMid meet">
<metadata>
Created by potrace 1.13, written by Peter Selinger 2001-2015
</metadata>
<g transform="translate(0.000000,626.000000) scale(0.100000,-0.100000)"
fill="#000000" stroke="none">
<path d="M2490 6184 c-138 -129 -285 -430 -390 -796 -163 -572 -242 -1242
-266 -2260 l-7 -288 39 -16 c195 -78 287 -184 314 -360 15 -99 -1 -250 -40
-366 l-30 -89 1 -577 c1 -317 4 -723 8 -902 7 -363 6 -356 82 -430 113 -110
309 -85 394 51 33 51 46 144 41 289 -2 63 -5 1392 -5 2953 l-1 2837 -45 0
c-41 0 -52 -5 -95 -46z"/>
<path d="M356 6093 c-6 -29 -17 -112 -42 -323 -8 -69 -21 -177 -30 -240 -8
-63 -21 -171 -29 -240 -8 -69 -22 -174 -30 -235 -38 -285 -46 -393 -35 -477
23 -167 88 -294 214 -417 74 -72 167 -203 214 -301 112 -234 121 -522 25 -840
l-38 -125 -3 -1329 -2 -1329 24 -52 c92 -201 378 -206 471 -9 l25 53 0 1320 0
1320 -36 178 c-49 241 -57 455 -24 613 41 202 101 318 257 500 110 129 140
175 179 276 35 92 42 224 21 399 -9 72 -23 193 -32 270 -9 77 -25 212 -35 300
-11 88 -26 221 -34 295 -8 74 -22 199 -32 278 l-17 142 -78 0 -78 0 4 -77 c5
-73 15 -458 35 -1213 4 -179 4 -329 0 -333 -4 -4 -45 -7 -91 -5 l-84 3 -3 813
-2 812 -65 0 -65 0 -2 -817 -3 -818 -75 0 -75 0 -3 818 -2 817 -75 0 -75 0 -2
-817 -3 -818 -87 -3 -88 -3 0 98 c0 54 5 206 10 337 5 132 14 413 19 625 6
212 13 430 16 484 l6 97 -70 0 c-68 0 -70 -1 -75 -27z"/>
</g>
</svg>
