<?xml version="1.0" encoding="utf-8"?>
<!-- Svg Vector Icons : http://www.onlinewebfonts.com/icon -->
<!DOCTYPE svg PUBLIC "-//W3C//DTD SVG 1.1//EN" "http://www.w3.org/Graphics/SVG/1.1/DTD/svg11.dtd">
<svg version="1.1" xmlns="http://www.w3.org/2000/svg" xmlns:xlink="http://www.w3.org/1999/xlink" x="0px" y="0px" viewBox="0 0 1000 1000" enable-background="new 0 0 1000 1000" xml:space="preserve">
<metadata> Svg Vector Icons : http://www.onlinewebfonts.com/icon </metadata>
<g><path d="M959.9,936.2h-50.7V132.3C909.2,64.8,854.5,10,786.9,10H216.1C148.5,10,93.7,64.8,93.7,132.3v803.9H40.1c-7.8,0-14,12.1-14,26.9c0,14.8,6.3,26.9,14,26.9h919.9c7.8,0,14-12,14-26.9C974,948.3,967.7,936.2,959.9,936.2z M142.8,169.8c0-59.4,48.2-107.6,107.6-107.6h502.3c59.4,0,107.6,48.2,107.6,107.6v766.5H641.9V708c0-9.9-7.5-17.8-16.8-17.8H378c-9.3,0-16.9,8-16.9,17.8v228.2H142.8V169.8z M398.2,934.9V742.6c0-7.3,5.6-13.1,12.4-13.1h181.7c6.9,0,12.4,5.9,12.4,13.1v192.3c0,0.5-0.2,0.9-0.2,1.4H398.4C398.4,935.8,398.2,935.4,398.2,934.9z"/><path d="M556.7,332.4h139.8c5.9,0,10.7-4.8,10.7-10.7V181.9c0-5.9-4.8-10.8-10.7-10.8H556.7c-5.9,0-10.8,4.8-10.8,10.8v139.7C546,327.6,550.8,332.4,556.7,332.4z"/><path d="M291.3,332.4h139.8c5.9,0,10.7-4.8,10.7-10.7V181.9c0-5.9-4.8-10.8-10.7-10.8H291.3c-5.9,0-10.7,4.8-10.7,10.8v139.7C280.6,327.6,285.4,332.4,291.3,332.4z"/><path d="M556.7,571.7h139.8c5.9,0,10.7-4.8,10.7-10.8V421.2c0-5.9-4.8-10.8-10.7-10.8H556.7c-5.9,0-10.8,4.8-10.8,10.8v139.7C546,566.9,550.8,571.7,556.7,571.7z"/><path d="M431.1,571.7c5.9,0,10.7-4.8,10.7-10.8V421.2c0-5.9-4.8-10.8-10.7-10.8H291.3c-5.9,0-10.7,4.8-10.7,10.8v139.7c0,5.9,4.8,10.8,10.7,10.8H431.1z"/></g>
</svg>