<?xml version="1.0" ?><svg height="512" id="Слой_1" version="1.0" viewBox="0 0 511.99999 512" width="512" xml:space="preserve" xmlns="http://www.w3.org/2000/svg" xmlns:cc="http://creativecommons.org/ns#" xmlns:dc="http://purl.org/dc/elements/1.1/" xmlns:inkscape="http://www.inkscape.org/namespaces/inkscape" xmlns:rdf="http://www.w3.org/1999/02/22-rdf-syntax-ns#" xmlns:sodipodi="http://sodipodi.sourceforge.net/DTD/sodipodi-0.dtd" xmlns:svg="http://www.w3.org/2000/svg" xmlns:xlink="http://www.w3.org/1999/xlink"><defs id="defs8"><linearGradient gradientUnits="userSpaceOnUse" id="linearGradient4129" x1="8.2822084" x2="5.8739586" xlink:href="#SVGID_2_" y1="226.40051" y2="30.907082"/><linearGradient gradientUnits="userSpaceOnUse" id="SVGID_2_" x1="388.5" x2="388.5" y1="259" y2="49.0005"><stop id="stop13" offset="0" style="stop-color:#0c80b1;stop-opacity:1"/><stop id="stop15" offset="1" style="stop-color:#1096cb;stop-opacity:1"/></linearGradient><linearGradient gradientUnits="userSpaceOnUse" id="linearGradient4145" x1="8.2822084" x2="5.8739586" xlink:href="#SVGID_2_" y1="226.40051" y2="30.907082"/><linearGradient gradientUnits="userSpaceOnUse" id="linearGradient4147" x1="388.5" x2="388.5" y1="259" y2="49.0005"><stop id="stop4149" offset="0" style="stop-color:#0c80b1;stop-opacity:1"/><stop id="stop4151" offset="1" style="stop-color:#1096cb;stop-opacity:1"/></linearGradient><linearGradient gradientUnits="userSpaceOnUse" id="linearGradient4153" x1="8.2822084" x2="5.8739586" xlink:href="#SVGID_2_" y1="226.40051" y2="30.907082"/><linearGradient gradientUnits="userSpaceOnUse" id="linearGradient4155" x1="388.5" x2="388.5" y1="259" y2="49.0005"><stop id="stop4157" offset="0" style="stop-color:#0c80b1;stop-opacity:1"/><stop id="stop4159" offset="1" style="stop-color:#1096cb;stop-opacity:1"/></linearGradient><linearGradient gradientUnits="userSpaceOnUse" id="linearGradient4164" x1="8.2822084" x2="5.8739586" xlink:href="#SVGID_2_" y1="226.40051" y2="30.907082"/><linearGradient gradientUnits="userSpaceOnUse" id="linearGradient4166" x1="8.2822084" x2="5.8739586" xlink:href="#SVGID_2_" y1="226.40051" y2="30.907082"/><linearGradient gradientUnits="userSpaceOnUse" id="linearGradient4168" x1="8.2822084" x2="5.8739586" xlink:href="#SVGID_2_" y1="226.40051" y2="30.907082"/></defs><g id="g2987" style="fill:url(#linearGradient4168);fill-opacity:1" transform="matrix(2.1097046,0,0,2.1097046,-13.369198,-14.395564)"><g id="Livello_x0020_1" style="fill:url(#linearGradient4166);fill-opacity:1"><path d="m 249.025,52.942 c -8.941,3.95 -18.535,6.626 -28.598,7.821 10.271,-6.148 18.17,-15.928 21.863,-27.551 -9.637,5.718 -20.281,9.854 -31.613,12.092 -9.089,-9.667 -22.011,-15.711 -36.349,-15.711 -27.477,0 -49.784,22.298 -49.784,49.783 0,3.911 0.435,7.717 1.308,11.327 C 84.464,88.64 47.79,68.797 23.241,38.683 c -4.267,7.352 -6.734,15.894 -6.734,25.013 0,17.275 8.803,32.517 22.159,41.42 -8.146,-0.248 -15.824,-2.494 -22.554,-6.227 0,0.222 0,0.396 0,0.622 0,24.109 17.162,44.243 39.938,48.797 -4.167,1.13 -8.581,1.738 -13.108,1.738 -3.224,0 -6.339,-0.33 -9.38,-0.904 6.334,19.778 24.727,34.186 46.49,34.585 -17.054,13.348 -38.487,21.325 -61.84,21.325 -4.019,0 -7.964,-0.261 -11.875,-0.695 22.016,14.112 48.189,22.385 76.326,22.385 91.563,0 141.634,-75.861 141.634,-141.643 0,-2.177 -0.044,-4.31 -0.147,-6.448 9.75,-7.017 18.179,-15.785 24.835,-25.782 l 0.04,0.073 z" id="path4" style="fill:url(#linearGradient4164);fill-opacity:1"/></g></g></svg>