<?xml version="1.0" encoding="utf-8"?>
<!-- Generator: Adobe Illustrator 16.0.4, SVG Export Plug-In . SVG Version: 6.00 Build 0)  -->
<!DOCTYPE svg PUBLIC "-//W3C//DTD SVG 1.1//EN" "http://www.w3.org/Graphics/SVG/1.1/DTD/svg11.dtd">
<svg version="1.1" id="Capa_1" xmlns="http://www.w3.org/2000/svg" xmlns:xlink="http://www.w3.org/1999/xlink" x="0px" y="0px"
	 width="841.889px" height="595.281px" viewBox="0 0 841.889 595.281" enable-background="new 0 0 841.889 595.281"
	 xml:space="preserve">
<g>
	<path fill="#E58E04" d="M582.994,265.072l-9.772-21.214l0.002-0.001l9.772,21.214L582.994,265.072z M290.711,281.362
		c-6.695-3.085-14.62-0.156-17.706,6.538l-65.143,141.426c-3.083,6.695-0.156,14.622,6.54,17.705
		c1.808,0.835,3.706,1.228,5.575,1.228c5.049,0,9.88-2.88,12.13-7.766l65.144-141.426
		C300.332,292.372,297.407,284.445,290.711,281.362z M691.418,429.998l-2.526,1.162l0.697,1.517
		c5.221,11.33,5.714,24.018,1.392,35.723c-4.322,11.703-12.945,21.023-24.277,26.244l-114.151,52.581
		c-6.183,2.848-12.751,4.292-19.519,4.292c-0.002,0-0.002,0-0.002,0c-18.182-0.002-34.843-10.669-42.448-27.18L420.759,372.74
		l-69.454,150.788c-7.605,16.51-24.269,27.177-42.449,27.177c-6.771,0-13.339-1.444-19.521-4.293l-114.147-52.579
		c-11.333-5.221-19.956-14.539-24.278-26.244c-4.322-11.706-3.828-24.391,1.391-35.725l0.697-1.515l-2.524-1.162
		c-23.395-10.776-33.66-38.575-22.886-61.972l53.739-116.674c5.218-11.335,14.538-19.956,26.246-24.278
		c11.704-4.324,24.39-3.828,35.725,1.392l2.527,1.164l4.188-9.092l10.649-23.137c11.076-24.04,39.645-34.587,63.677-23.515
		c0.24,0.109,0.477,0.222,0.714,0.336c16.911-9.758,37.475-10.827,55.637-2.459c15.814,7.282,27.45,20.66,32.534,36.886
		c3.03,0.549,6.025,1.358,8.969,2.375c2.135-0.634,4.292-1.169,6.471-1.563c5.083-16.227,16.721-29.604,32.531-36.886
		c18.168-8.368,38.726-7.297,55.64,2.461c0.237-0.113,0.474-0.225,0.712-0.336c11.643-5.365,24.677-5.873,36.707-1.432
		c12.025,4.441,21.603,13.3,26.968,24.945l10.656,23.131c0,0.003,0.002,0.005,0.003,0.007l4.185,9.086l2.523-1.162
		c11.335-5.221,24.023-5.713,35.727-1.392c11.707,4.322,21.028,12.944,26.248,24.278l53.741,116.677
		C725.077,391.422,714.811,419.222,691.418,429.998z M477.612,237.082c-4.204,6.057-12.523,7.557-18.574,3.354
		c-1.112-0.772-2.273-1.449-3.457-2.077c1.425,2.609,2.669,5.338,3.716,8.179c2.244,6.08,3.474,12.364,3.728,18.656l99.023-45.613
		l-5.071-11.008c-2.382-5.17-6.633-9.104-11.97-11.074c-5.34-1.972-11.125-1.744-16.292,0.635c-1.41,0.65-2.734,1.444-3.941,2.358
		c-2.316,1.859-5.243,2.938-8.354,2.938c-3.178,0-6.159-1.124-8.498-3.053c-10.139-8.13-23.751-9.805-35.558-4.366
		c-6.65,3.062-11.983,8.051-15.437,14.192c6.107,1.81,11.97,4.586,17.329,8.307C480.313,222.713,481.817,231.028,477.612,237.082z
		 M164.164,406.105l70.495-153.042l-2.527-1.164c-10.024-4.616-21.939-0.219-26.559,9.808l-53.742,116.676
		c-4.619,10.026-0.22,21.94,9.807,26.559L164.164,406.105z M419.186,312.346l-13.313-6.134l-0.878,0.406l-0.474-1.028l-11.31-5.208
		L385.87,297l-117.198-53.982h-0.002l-4.884,10.605v11.68h-0.002v-11.676l-4.885,10.604l-70.49,153.04l-3.084,6.695l-8.084,17.55
		l-0.699,1.517c-2.236,4.856-2.449,10.293-0.597,15.311c1.853,5.016,5.55,9.01,10.404,11.248l114.151,52.578
		c2.657,1.223,5.469,1.844,8.354,1.844c7.799,0,14.944-4.574,18.205-11.652l79.003-171.521l7.347-15.95l4.354-9.459L419.186,312.346
		z M434.631,278.272c2.433-7.306,2.334-15.158-0.374-22.485c-2.476-6.705-6.907-12.311-12.69-16.263
		c-1.579-1.077-3.237-2.059-5.011-2.874c-3.042-1.4-6.24-2.304-9.482-2.756c-6.596-0.919-13.374,0.103-19.439,2.984
		c-1.651,0.785-3.255,1.689-4.782,2.75c-6.056,4.2-14.37,2.702-18.574-3.353c-4.202-6.055-2.701-14.371,3.354-18.573
		c5.36-3.721,11.221-6.497,17.33-8.307c-3.454-6.143-8.787-11.13-15.437-14.193c-11.809-5.437-25.414-3.763-35.556,4.362
		c-0.769,0.635-1.618,1.189-2.53,1.646c-4.785,2.391-10.381,1.654-14.35-1.543c-1.204-0.912-2.521-1.698-3.917-2.341
		c-10.668-4.917-23.35-0.232-28.267,10.437l-5.07,11.011l99.104,45.649l13.283,6.117l14.486,6.672l15.112,6.961L434.631,278.272z
		 M665.345,443.845l-0.699-1.519l-0.001-0.001l-0.001,0.001l-2.961-6.435l-78.695-170.851l-9.771-21.215l-0.003,0.002
		l-118.143,54.42l-6.055,13.143l-13.564,29.449l79.378,172.331c3.26,7.079,10.405,11.653,18.203,11.653c0.002,0,0.002,0,0.002,0
		c2.886,0,5.694-0.62,8.354-1.844l114.149-52.58c4.856-2.237,8.552-6.231,10.403-11.248
		C667.794,454.135,667.581,448.701,665.345,443.845z M690.058,379.193l-53.743-116.676c-4.619-10.026-16.535-14.422-26.559-9.808
		l-2.526,1.162l70.493,153.045l2.529-1.164C690.278,401.135,694.675,389.221,690.058,379.193z M526.379,308.292
		c-3.087-6.695-11.011-9.623-17.706-6.539c-6.696,3.084-9.623,11.011-6.539,17.706l65.144,141.425
		c2.251,4.887,7.082,7.766,12.13,7.766c1.868,0,3.767-0.394,5.575-1.227c6.697-3.084,9.623-11.011,6.54-17.706L526.379,308.292z
		 M568.883,288.712c-3.084-6.694-11.014-9.623-17.705-6.538c-6.697,3.083-9.624,11.011-6.54,17.706l65.144,141.425
		c2.252,4.886,7.082,7.766,12.132,7.766c1.869,0,3.767-0.395,5.575-1.228c6.697-3.083,9.622-11.01,6.54-17.705L568.883,288.712z
		 M483.872,327.867c-3.086-6.695-11.012-9.623-17.705-6.539c-6.697,3.084-9.623,11.011-6.54,17.706l65.144,141.425
		c2.252,4.887,7.083,7.766,12.13,7.766c1.869,0,3.768-0.394,5.576-1.227c6.697-3.084,9.623-11.011,6.539-17.706L483.872,327.867z
		 M333.214,300.943c-6.695-3.085-14.62-0.156-17.706,6.539l-65.142,141.427c-3.083,6.695-0.156,14.622,6.54,17.706
		c1.808,0.832,3.707,1.227,5.575,1.227c5.049,0,9.88-2.88,12.131-7.766l65.142-141.425
		C342.837,311.954,339.91,304.026,333.214,300.943z M375.72,320.519c-6.692-3.086-14.622-0.156-17.705,6.539l-65.142,141.425
		c-3.084,6.695-0.156,14.622,6.539,17.706c1.808,0.835,3.707,1.227,5.576,1.227c5.048,0,9.879-2.879,12.13-7.766l65.142-141.425
		C385.343,331.531,382.416,323.602,375.72,320.519z M421.377,158.081c7.37,0,13.347-5.977,13.347-13.346V57.11
		c0-7.372-5.977-13.347-13.347-13.347c-7.369,0-13.346,5.975-13.346,13.347v87.625C408.031,152.106,414.007,158.081,421.377,158.081
		z M472.1,145.494c1.857,0.888,3.816,1.31,5.748,1.31c4.979,0,9.76-2.799,12.049-7.591l24.072-50.335
		c3.18-6.649,0.369-14.619-6.282-17.799c-6.648-3.18-14.619-0.369-17.797,6.282l-24.072,50.335
		C462.639,134.344,465.449,142.314,472.1,145.494z M350.076,139.212c2.292,4.793,7.068,7.591,12.049,7.591
		c1.93,0,3.892-0.422,5.748-1.31c6.648-3.18,9.462-11.149,6.281-17.797L350.08,77.361c-3.18-6.65-11.143-9.461-17.799-6.281
		c-6.648,3.18-9.461,11.149-6.282,17.797L350.076,139.212z"/>
</g>
</svg>
