<?xml version="1.0" standalone="no"?>
<!DOCTYPE svg PUBLIC "-//W3C//DTD SVG 20010904//EN"
 "http://www.w3.org/TR/2001/REC-SVG-20010904/DTD/svg10.dtd">
<svg version="1.0" xmlns="http://www.w3.org/2000/svg"
 width="226.000000pt" height="233.000000pt" viewBox="0 0 226.000000 233.000000"
 preserveAspectRatio="xMidYMid meet">
<metadata>
Created by potrace 1.13, written by Peter Selinger 2001-2015
</metadata>
<g transform="translate(0.000000,233.000000) scale(0.100000,-0.100000)"
fill="#000000" stroke="none">
<path d="M36 2284 c-4 -14 -5 -28 -3 -30 2 -3 101 -33 218 -69 1277 -382 1963
-585 1975 -585 11 0 14 8 12 27 -3 25 -11 29 -178 79 -1536 459 -1993 596
-2004 600 -8 3 -16 -5 -20 -22z"/>
<path d="M1040 2140 c-36 -36 -21 -102 27 -121 58 -22 116 36 94 94 -19 48
-85 63 -121 27z"/>
<path d="M1255 2075 c-14 -13 -25 -36 -25 -50 0 -33 42 -75 75 -75 14 0 37 11
50 25 14 13 25 36 25 50 0 14 -11 37 -25 50 -13 14 -36 25 -50 25 -14 0 -37
-11 -50 -25z"/>
<path d="M1031 1865 l31 -56 -15 -101 c-13 -83 -21 -105 -40 -122 -13 -12 -61
-98 -106 -192 l-83 -170 -131 -43 c-177 -58 -197 -68 -213 -108 -19 -46 -8
-69 108 -224 52 -69 107 -146 123 -171 39 -63 79 -86 181 -107 66 -14 139 -41
279 -106 105 -48 196 -92 202 -98 7 -5 68 -79 135 -164 125 -160 163 -192 211
-179 44 11 71 40 71 79 0 29 -21 63 -134 214 -74 99 -148 189 -165 201 -16 11
-108 53 -202 93 -95 39 -173 77 -173 83 1 13 162 106 184 106 8 0 60 -60 116
-134 101 -134 127 -156 182 -156 27 0 78 54 78 82 0 31 -30 78 -173 269 -111
149 -130 169 -163 169 -7 0 -93 -43 -190 -95 -97 -53 -178 -94 -180 -92 -10
10 99 567 122 624 19 45 23 66 16 80 -7 12 -3 53 12 133 19 101 24 115 41 113
19 -1 100 55 91 64 -4 5 -224 62 -239 63 -4 0 7 -25 24 -55z m-99 -880 l-28
-170 -76 114 c-43 63 -75 117 -73 121 2 3 42 21 89 40 71 29 88 40 98 65 22
52 19 7 -10 -170z"/>
<path d="M352 1460 c-99 -61 -95 -206 8 -257 55 -28 82 -29 136 -2 80 38 107
145 55 217 -42 60 -137 80 -199 42z"/>
</g>
</svg>
