<?xml version="1.0" standalone="no"?>
<!DOCTYPE svg PUBLIC "-//W3C//DTD SVG 20010904//EN"
 "http://www.w3.org/TR/2001/REC-SVG-20010904/DTD/svg10.dtd">
<svg version="1.0" xmlns="http://www.w3.org/2000/svg"
 width="800.000000pt" height="450.000000pt" viewBox="0 0 800.000000 450.000000"
 preserveAspectRatio="xMidYMid meet">
<metadata>
Created by potrace 1.13, written by Peter Selinger 2001-2015
</metadata>
<g transform="translate(0.000000,450.000000) scale(0.100000,-0.100000)"
fill="#000000" stroke="none">
<path d="M1967 4473 c-8 -16 -33 -71 -55 -123 -50 -117 -161 -374 -214 -495
-22 -49 -72 -166 -112 -260 -40 -93 -126 -291 -191 -440 -65 -148 -161 -371
-215 -495 -54 -124 -160 -367 -235 -540 -75 -173 -163 -377 -196 -452 -32 -76
-70 -163 -85 -195 -14 -32 -30 -68 -35 -80 -5 -13 -40 -96 -79 -185 -109 -248
-120 -275 -120 -282 0 -3 134 -6 299 -6 234 0 301 3 309 13 10 11 118 250 267
587 23 53 49 111 58 130 19 43 124 278 258 580 55 124 130 290 166 370 102
225 118 263 353 790 121 272 237 520 258 550 87 127 253 149 368 48 36 -31 89
-132 159 -297 13 -31 46 -108 75 -171 29 -63 67 -149 85 -190 18 -41 82 -185
143 -320 113 -252 332 -741 407 -910 23 -52 76 -171 118 -265 41 -93 118 -267
171 -385 52 -118 98 -214 102 -213 3 1 107 183 231 405 123 222 238 418 256
436 115 120 313 99 408 -43 28 -42 36 -55 254 -450 76 -137 153 -274 171 -303
l32 -54 22 49 c12 26 44 98 70 158 26 61 77 175 113 255 113 254 197 441 262
585 35 77 107 239 160 360 98 220 247 554 331 738 24 53 44 100 44 104 0 3 15
38 34 77 19 39 53 114 76 166 85 192 98 217 131 255 19 21 54 48 79 59 43 20
63 21 528 24 265 2 482 4 482 6 0 1 42 100 94 219 l94 217 -2959 0 -2958 0
-14 -27z"/>
<path d="M6951 3538 c-5 -13 -34 -77 -64 -143 -30 -66 -110 -244 -178 -395
-67 -151 -142 -320 -167 -375 -70 -159 -116 -261 -174 -395 -31 -69 -76 -170
-101 -225 -25 -55 -95 -212 -157 -350 -61 -137 -127 -284 -145 -325 -38 -83
-137 -306 -225 -505 -103 -234 -116 -260 -149 -297 -76 -87 -206 -113 -309
-62 -64 32 -83 56 -170 215 -38 68 -104 187 -147 264 -43 77 -97 174 -120 215
-90 164 -140 250 -145 250 -3 0 -14 -17 -26 -38 -11 -20 -53 -95 -93 -167 -41
-71 -129 -229 -196 -350 -68 -121 -135 -241 -150 -267 -116 -206 -367 -193
-476 24 -16 31 -76 164 -135 295 -58 131 -117 263 -131 293 -14 30 -33 75 -44
100 -10 25 -51 119 -93 210 l-74 165 -682 3 -681 2 -28 -62 c-37 -80 -94 -209
-167 -373 -31 -71 -78 -177 -104 -235 -26 -58 -84 -189 -129 -292 -87 -195
-112 -232 -185 -271 -40 -22 -51 -22 -570 -27 l-529 -5 -88 -200 c-49 -110
-89 -203 -89 -207 0 -5 1336 -8 2969 -8 l2969 0 62 148 c34 81 98 230 142 332
211 487 272 629 348 810 79 189 155 365 296 690 37 85 79 184 94 220 15 36 51
119 80 185 28 66 83 194 122 285 39 91 105 246 148 345 68 156 213 496 227
533 4 9 -52 12 -261 12 l-266 0 -9 -22z"/>
<path d="M2563 3123 c-17 -38 -105 -234 -196 -438 -90 -203 -179 -400 -196
-437 l-30 -68 454 0 c250 0 455 3 455 6 0 8 -113 265 -214 489 -40 88 -108
240 -151 338 -43 97 -81 177 -85 177 -4 0 -21 -30 -37 -67z"/>
</g>
</svg>
